<svg width="20" height="25" viewBox="0 0 20 25" fill="none" xmlns="http://www.w3.org/2000/svg">
<path d="M9.48145 24.9307C8.12793 24.9307 6.89746 24.7461 5.79004 24.377C4.68848 24.0137 3.74219 23.4893 2.95117 22.8037C2.16016 22.1182 1.55078 21.2979 1.12305 20.3428C0.701172 19.3936 0.490234 18.3359 0.490234 17.1699C0.490234 16.3438 0.554688 15.6172 0.683594 14.9902C0.818359 14.3633 0.982422 13.8008 1.17578 13.3027C1.375 12.7988 1.57129 12.3242 1.76465 11.8789C1.96387 11.4336 2.12793 10.9854 2.25684 10.5342C2.3916 10.083 2.45898 9.58789 2.45898 9.04883C2.45898 8.77344 2.44434 8.49219 2.41504 8.20508C2.38574 7.91797 2.37109 7.68945 2.37109 7.51953C2.37109 7.26172 2.44434 7.05664 2.59082 6.9043C2.7373 6.74609 2.93066 6.66699 3.1709 6.66699C3.54004 6.66699 3.9209 6.77832 4.31348 7.00098C4.70605 7.21777 5.06934 7.53125 5.40332 7.94141C5.7373 8.35156 6.00391 8.84082 6.20312 9.40918L5.70215 9.52344C5.87207 9.24805 5.9834 8.99609 6.03613 8.76758C6.08887 8.5332 6.11523 8.29297 6.11523 8.04688C6.10938 7.33203 5.97461 6.64648 5.71094 5.99023C5.45312 5.32813 5.11621 4.69531 4.7002 4.0918C4.29004 3.48242 3.85352 2.89941 3.39062 2.34277C3.27344 2.19629 3.17969 2.0498 3.10938 1.90332C3.04492 1.75684 3.0127 1.61035 3.0127 1.46387C3.0127 1.08887 3.1709 0.804688 3.4873 0.611328C3.80371 0.412109 4.23145 0.3125 4.77051 0.3125C5.77832 0.3125 6.83887 0.432617 7.95215 0.672852C9.07129 0.913086 10.1816 1.28516 11.2832 1.78906C12.3848 2.29297 13.4277 2.93457 14.4121 3.71387C15.4023 4.49316 16.2783 5.41602 17.04 6.48242C17.8076 7.54883 18.4111 8.76758 18.8506 10.1387C19.29 11.5098 19.5098 13.042 19.5098 14.7354C19.5098 16.2705 19.2695 17.665 18.7891 18.9189C18.3145 20.167 17.6348 21.2393 16.75 22.1357C15.8652 23.0381 14.8076 23.7295 13.5771 24.21C12.3467 24.6904 10.9814 24.9307 9.48145 24.9307ZM9.57812 23.2607C10.8027 23.2607 11.916 23.0557 12.918 22.6455C13.9199 22.2354 14.7812 21.6523 15.502 20.8965C16.2285 20.1406 16.7852 19.2383 17.1719 18.1895C17.5586 17.1348 17.752 15.9658 17.752 14.6826C17.752 13.2236 17.5439 11.8555 17.1279 10.5781C16.7119 9.30078 16.1113 8.14062 15.3262 7.09766C14.5469 6.04883 13.6094 5.14648 12.5137 4.39062C11.418 3.62891 10.1816 3.03711 8.80469 2.61523C7.43359 2.1875 5.95117 1.95898 4.35742 1.92969L4.72656 1.49902C5.33594 2.1084 5.85449 2.77051 6.28223 3.48535C6.71582 4.19434 7.04688 4.94141 7.27539 5.72656C7.50391 6.51172 7.61816 7.31738 7.61816 8.14355C7.61816 8.54199 7.57422 8.95801 7.48633 9.3916C7.4043 9.8252 7.29004 10.2324 7.14355 10.6133C7.00293 10.9883 6.83301 11.293 6.63379 11.5273C6.43457 11.7559 6.2207 11.8701 5.99219 11.8701C5.88086 11.8701 5.78711 11.8379 5.71094 11.7734C5.64062 11.7031 5.59082 11.5977 5.56152 11.457C5.44434 10.9766 5.28906 10.54 5.0957 10.1475C4.90234 9.74902 4.68262 9.40332 4.43652 9.11035C4.19043 8.81152 3.92383 8.56836 3.63672 8.38086L3.95312 8.03809C3.99414 8.21387 4.0293 8.40137 4.05859 8.60059C4.09375 8.79395 4.11133 8.99316 4.11133 9.19824C4.11719 9.85449 4.05566 10.4375 3.92676 10.9473C3.79785 11.4512 3.63672 11.9258 3.44336 12.3711C3.25 12.8164 3.05664 13.2705 2.86328 13.7334C2.66992 14.1904 2.50879 14.6973 2.37988 15.2539C2.25098 15.8047 2.18652 16.4434 2.18652 17.1699C2.18652 18.0781 2.3623 18.9072 2.71387 19.6572C3.06543 20.4014 3.56641 21.04 4.2168 21.5732C4.87305 22.1123 5.65234 22.5283 6.55469 22.8213C7.46289 23.1143 8.4707 23.2607 9.57812 23.2607ZM9.72754 21.5029C8.69629 21.5029 7.86719 21.2188 7.24023 20.6504C6.61914 20.0879 6.30859 19.3438 6.30859 18.418C6.30859 17.9375 6.37598 17.5244 6.51074 17.1787C6.65137 16.833 6.81543 16.5225 7.00293 16.2471C7.19043 15.9717 7.36328 15.6992 7.52148 15.4297C7.68555 15.1543 7.79102 14.8525 7.83789 14.5244C7.84375 14.4658 7.86719 14.4248 7.9082 14.4014C7.95508 14.3779 8.00781 14.3896 8.06641 14.4365C8.3125 14.6592 8.52344 14.9111 8.69922 15.1924C8.875 15.4678 9.02734 15.7725 9.15625 16.1064C9.44336 15.6846 9.63965 15.0986 9.74512 14.3486C9.85645 13.5986 9.85938 12.7812 9.75391 11.8965C9.74219 11.832 9.75684 11.7852 9.79785 11.7559C9.84473 11.7207 9.89746 11.7148 9.95605 11.7383C10.7588 12.1074 11.4297 12.5967 11.9688 13.2061C12.5137 13.8154 12.9268 14.4863 13.208 15.2188C13.4893 15.9512 13.6299 16.6836 13.6299 17.416C13.6299 18.1543 13.4834 18.834 13.1904 19.4551C12.8975 20.0703 12.4609 20.5654 11.8809 20.9404C11.3066 21.3154 10.5889 21.5029 9.72754 21.5029Z" fill="#999999"/>
</svg>
