<svg width="78" height="78" viewBox="0 0 78 78" fill="none" xmlns="http://www.w3.org/2000/svg">
<path d="M39 78C33.6216 78 28.5745 76.9804 23.8588 74.9412C19.1431 72.9275 15.001 70.1363 11.4324 66.5676C7.86373 62.999 5.0598 58.8569 3.02059 54.1412C1.00686 49.4255 0 44.3784 0 39C0 33.6216 1.00686 28.5745 3.02059 23.8588C5.0598 19.1431 7.86373 15.001 11.4324 11.4324C15.001 7.83824 19.1431 5.03431 23.8588 3.02059C28.5745 1.00686 33.6216 0 39 0C44.3784 0 49.4255 1.00686 54.1412 3.02059C58.8569 5.03431 62.999 7.83824 66.5676 11.4324C70.1363 15.001 72.9275 19.1431 74.9412 23.8588C76.9804 28.5745 78 33.6216 78 39C78 44.3784 76.9804 49.4255 74.9412 54.1412C72.9275 58.8569 70.1363 62.999 66.5676 66.5676C62.999 70.1363 58.8569 72.9275 54.1412 74.9412C49.4255 76.9804 44.3784 78 39 78ZM39 71.5C43.4863 71.5 47.6922 70.6588 51.6176 68.9765C55.5431 67.2941 58.9971 64.9618 61.9794 61.9794C64.9618 58.9971 67.2941 55.5431 68.9765 51.6176C70.6588 47.6922 71.5 43.4863 71.5 39C71.5 34.5137 70.6588 30.3078 68.9765 26.3824C67.2941 22.4314 64.9618 18.9775 61.9794 16.0206C58.9971 13.0382 55.5431 10.7059 51.6176 9.02353C47.6922 7.34118 43.4863 6.5 39 6.5C34.5137 6.5 30.3078 7.34118 26.3824 9.02353C22.4569 10.7059 19.0029 13.0382 16.0206 16.0206C13.0382 18.9775 10.7059 22.4314 9.02353 26.3824C7.34118 30.3078 6.5 34.5137 6.5 39C6.5 43.4863 7.34118 47.6922 9.02353 51.6176C10.7059 55.5431 13.0382 58.9971 16.0206 61.9794C19.0029 64.9618 22.4569 67.2941 26.3824 68.9765C30.3078 70.6588 34.5137 71.5 39 71.5ZM25.6559 55.5941C24.7382 55.5941 23.9863 55.2882 23.4 54.6765C22.8392 54.0392 22.5588 53.2873 22.5588 52.4206C22.5588 51.5029 22.9922 50.6108 23.8588 49.7441L49.5147 23.7059C50.3559 22.8392 51.2353 22.4059 52.1529 22.4059C53.0196 22.4059 53.7716 22.7118 54.4088 23.3235C55.0461 23.9353 55.3647 24.6873 55.3647 25.5794C55.3647 26.4971 54.9314 27.3765 54.0647 28.2176L28.3706 54.2941C27.5039 55.1608 26.599 55.5941 25.6559 55.5941Z" fill="#BABABA"/>
</svg>
