<svg width="393" height="852" viewBox="0 0 393 852" fill="none" xmlns="http://www.w3.org/2000/svg">
<mask id="path-1-outside-1_1438_12203" maskUnits="userSpaceOnUse" x="-2" y="-2" width="397" height="856" fill="black">
<rect fill="white" x="-2" y="-2" width="397" height="856"/>
<path fill-rule="evenodd" clip-rule="evenodd" d="M393 0H0V852H393V0ZM38 270C28.0589 270 20 278.059 20 288V405C20 414.941 28.0589 423 38 423H292.127C296.25 423 300.248 421.585 303.453 418.99L375.718 360.49C384.617 353.286 384.617 339.714 375.718 332.51L303.453 274.01C300.248 271.415 296.25 270 292.127 270H38Z"/>
</mask>
<path fill-rule="evenodd" clip-rule="evenodd" d="M393 0H0V852H393V0ZM38 270C28.0589 270 20 278.059 20 288V405C20 414.941 28.0589 423 38 423H292.127C296.25 423 300.248 421.585 303.453 418.99L375.718 360.49C384.617 353.286 384.617 339.714 375.718 332.51L303.453 274.01C300.248 271.415 296.25 270 292.127 270H38Z" fill="black" fill-opacity="0.8"/>
<path d="M0 0V-2H-2V0H0ZM393 0H395V-2H393V0ZM0 852H-2V854H0V852ZM393 852V854H395V852H393ZM303.453 418.99L302.195 417.436L302.195 417.436L303.453 418.99ZM375.718 360.49L376.976 362.045L376.976 362.045L375.718 360.49ZM375.718 332.51L376.976 330.955L376.976 330.955L375.718 332.51ZM303.453 274.01L304.711 272.455L304.711 272.455L303.453 274.01ZM0 2H393V-2H0V2ZM2 852V0H-2V852H2ZM393 850H0V854H393V850ZM391 0V852H395V0H391ZM22 288C22 279.163 29.1634 272 38 272V268C26.9543 268 18 276.954 18 288H22ZM22 405V288H18V405H22ZM38 421C29.1634 421 22 413.837 22 405H18C18 416.046 26.9543 425 38 425V421ZM292.127 421H38V425H292.127V421ZM302.195 417.436C299.346 419.742 295.792 421 292.127 421V425C296.709 425 301.151 423.427 304.711 420.545L302.195 417.436ZM374.459 358.936L302.195 417.436L304.711 420.545L376.976 362.045L374.459 358.936ZM374.459 334.064C382.37 340.468 382.37 352.532 374.459 358.936L376.976 362.045C386.864 354.04 386.864 338.96 376.976 330.955L374.459 334.064ZM302.195 275.564L374.459 334.064L376.976 330.955L304.711 272.455L302.195 275.564ZM292.127 272C295.792 272 299.346 273.258 302.195 275.564L304.711 272.455C301.151 269.573 296.709 268 292.127 268V272ZM38 272H292.127V268H38V272Z" fill="#FF6464" mask="url(#path-1-outside-1_1438_12203)"/>
</svg>
