<svg width="2200" height="2200" viewBox="0 0 2200 2200" fill="none" xmlns="http://www.w3.org/2000/svg">
<rect width="2200" height="2200" fill="#86645F"/>
<rect width="2200" height="2200" fill="url(#paint0_linear_2965_14031)" fill-opacity="0.9"/>
<path fill-rule="evenodd" clip-rule="evenodd" d="M1037.38 1364.34C1032.89 1369.95 1027.15 1374.7 1020.3 1378.13L952.03 1412.26C926.739 1424.91 895.984 1414.66 883.338 1389.36C870.693 1364.07 880.944 1333.32 906.236 1320.67L974.502 1286.54C999.794 1273.89 1030.55 1284.14 1043.19 1309.44C1044.01 1311.07 1044.73 1312.72 1045.36 1314.4C1056.23 1304.27 1076.03 1297.41 1098.83 1297.21C1122.32 1297.01 1143.03 1303.93 1154.25 1314.38C1154.87 1312.71 1155.59 1311.06 1156.41 1309.44C1169.05 1284.14 1199.81 1273.89 1225.1 1286.54L1293.36 1320.67C1318.66 1333.32 1328.91 1364.07 1316.26 1389.36C1303.62 1414.66 1272.86 1424.91 1247.57 1412.26L1179.3 1378.13C1173.37 1375.16 1168.26 1371.2 1164.09 1366.54L1165.73 1425.64C1166.27 1445.04 1138.37 1461.01 1103.4 1461.31C1068.44 1461.6 1039.66 1446.12 1039.11 1426.73L1037.38 1364.34Z" fill="url(#paint1_linear_2965_14031)"/>
<g filter="url(#filter0_d_2965_14031)">
<path fill-rule="evenodd" clip-rule="evenodd" d="M1171.01 770.954C1183.88 808.628 1168.88 851.378 1133.15 872.172C1129.66 874.204 1125.98 876.41 1122.14 878.782C1148.44 897.909 1176.81 921.687 1200.77 948.822C1236.99 989.838 1253.41 1027.21 1253.41 1059.92C1253.41 1139 1187.6 1208.46 1099.82 1208.46C1012.04 1208.46 946.229 1139 946.229 1059.92C946.229 1022.75 963.612 984.5 998.442 945.129C1022.3 918.155 1050.69 894.964 1076.96 876.581C1092.54 865.453 1107.27 856.136 1119.63 848.941C1147.52 832.709 1156.97 796.939 1140.74 769.048C1131.89 753.844 1117.23 744.12 1101.22 741.049C1084.4 740.54 1067.49 744.821 1052.28 753.953C975.091 800.307 831.035 907.267 831.035 1059.92C831.035 1206.5 951.374 1325.32 1099.82 1325.32C1248.27 1325.32 1368.6 1206.5 1368.6 1059.92C1368.6 928.057 1250.65 825.299 1171.01 770.954Z" fill="white"/>
</g>
<g filter="url(#filter1_d_2965_14031)">
<path fill-rule="evenodd" clip-rule="evenodd" d="M1140.72 768.588C1156.96 796.996 1147.51 833.429 1119.62 849.963C1089.04 868.09 1043.98 895.44 1007.34 935.221C969.994 975.777 947.863 1017.92 947.863 1058.71C947.863 1142.28 1015.28 1211.13 1099.78 1211.13C1184.29 1211.13 1253.8 1141.84 1253.8 1058.27C1253.8 1025.4 1277.87 999.19 1310.14 999.19C1342.41 999.19 1368.57 1025.84 1368.57 1058.71C1368.57 1209.24 1247.63 1330.17 1099.78 1330.17C951.938 1330.17 831 1209.24 831 1058.71C831 974.182 875.8 904.072 922.112 853.785C969.138 802.723 1024.48 768.638 1060.83 747.087C1088.72 730.553 1124.49 740.18 1140.72 768.588Z" fill="white"/>
</g>
<defs>
<filter id="filter0_d_2965_14031" x="764.256" y="674.23" width="671.128" height="717.872" filterUnits="userSpaceOnUse" color-interpolation-filters="sRGB">
<feFlood flood-opacity="0" result="BackgroundImageFix"/>
<feColorMatrix in="SourceAlpha" type="matrix" values="0 0 0 0 0 0 0 0 0 0 0 0 0 0 0 0 0 0 127 0" result="hardAlpha"/>
<feOffset/>
<feGaussianBlur stdDeviation="33.3894"/>
<feComposite in2="hardAlpha" operator="out"/>
<feColorMatrix type="matrix" values="0 0 0 0 0.783789 0 0 0 0 0.735555 0 0 0 0 0.745684 0 0 0 0.25 0"/>
<feBlend mode="normal" in2="BackgroundImageFix" result="effect1_dropShadow_2965_14031"/>
<feBlend mode="normal" in="SourceGraphic" in2="effect1_dropShadow_2965_14031" result="shape"/>
</filter>
<filter id="filter1_d_2965_14031" x="764.221" y="672.221" width="671.128" height="724.724" filterUnits="userSpaceOnUse" color-interpolation-filters="sRGB">
<feFlood flood-opacity="0" result="BackgroundImageFix"/>
<feColorMatrix in="SourceAlpha" type="matrix" values="0 0 0 0 0 0 0 0 0 0 0 0 0 0 0 0 0 0 127 0" result="hardAlpha"/>
<feOffset/>
<feGaussianBlur stdDeviation="33.3894"/>
<feComposite in2="hardAlpha" operator="out"/>
<feColorMatrix type="matrix" values="0 0 0 0 0.783789 0 0 0 0 0.735555 0 0 0 0 0.745684 0 0 0 0.25 0"/>
<feBlend mode="normal" in2="BackgroundImageFix" result="effect1_dropShadow_2965_14031"/>
<feBlend mode="normal" in="SourceGraphic" in2="effect1_dropShadow_2965_14031" result="shape"/>
</filter>
<linearGradient id="paint0_linear_2965_14031" x1="1100" y1="0" x2="1100" y2="2200" gradientUnits="userSpaceOnUse">
<stop stop-opacity="0"/>
<stop offset="1"/>
</linearGradient>
<linearGradient id="paint1_linear_2965_14031" x1="1099.8" y1="1281.12" x2="1099.8" y2="1461.31" gradientUnits="userSpaceOnUse">
<stop stop-color="#EAEAEA"/>
<stop offset="1" stop-color="white" stop-opacity="0.65"/>
</linearGradient>
</defs>
</svg>
