<svg width="40" height="41" viewBox="0 0 40 41" fill="none" xmlns="http://www.w3.org/2000/svg">
<g id="Frame 41">
<path id="Rectangle 129" d="M16.6324 13.0353C20.2063 9.46424 25.9984 9.46656 29.5695 13.0405C33.1405 16.6144 33.1382 22.4065 29.5643 25.9775L20.0125 35.5217C16.4386 39.0927 10.6465 39.0904 7.07545 35.5165C3.5044 31.9426 3.50672 26.1505 7.08062 22.5794L16.6324 13.0353Z" fill="#785A4D"/>
<circle id="Ellipse 21" cx="26.4582" cy="15.9524" r="9.38305" fill="#CFAF91"/>
<circle id="Ellipse 23" cx="26.4578" cy="15.9529" r="2.34576" stroke="#A67A50" stroke-width="1.56384"/>
<circle id="Ellipse 24" cx="26.4585" cy="15.9526" r="5.47345" stroke="#A67A50" stroke-width="1.56384"/>
<path id="Vector 22" d="M12.9872 13.0431C10.6519 11.7321 6.33979 8.27243 8.64814 1.37343C8.90451 0.607224 9.76278 0.216575 10.4933 0.561751C16.2542 3.28388 15.4854 9.44448 14.7833 12.2481C14.5789 13.0642 13.7208 13.4549 12.9872 13.0431Z" fill="#4BB96E"/>
</g>
</svg>
