<svg width="29" height="27" viewBox="0 0 29 27" fill="none" xmlns="http://www.w3.org/2000/svg">
<path fill-rule="evenodd" clip-rule="evenodd" d="M21.2344 25.1311H25.8177C26.6462 25.1311 27.3177 24.4595 27.3177 23.6311V20.0791H28.8177V23.6311C28.8177 25.288 27.4746 26.6311 25.8177 26.6311H21.2344V25.1311ZM1.5 20.0791V23.6311C1.5 24.4595 2.17157 25.1311 3 25.1311H7.58387V26.6311H3C1.34314 26.6311 0 25.288 0 23.6311V20.0791H1.5ZM7.58387 3.5H3C2.17157 3.5 1.5 4.17157 1.5 5V8.5522H0V5C0 3.34315 1.34315 2 3 2H7.58387V3.5ZM21.2344 3.5H25.8177C26.6462 3.5 27.3177 4.17157 27.3177 5V8.5522H28.8177V5C28.8177 3.34315 27.4746 2 25.8177 2H21.2344V3.5Z" fill="#D9D9D9"/>
<path d="M6 9.03195C6 8.46202 6.46202 8 7.03195 8L19.9006 8C20.1588 8 20.4076 8.09678 20.5979 8.27124L24.2395 11.6094C24.6857 12.0184 24.6857 12.7218 24.2395 13.1308L20.5979 16.4689C20.4076 16.6433 20.1588 16.7401 19.9006 16.7401H7.03195C6.46202 16.7401 6 16.2781 6 15.7082V9.03195Z" fill="#D9D9D9"/>
<rect x="12" y="7" width="4" height="16" rx="1" fill="#D9D9D9"/>
</svg>
