<svg width="152" height="44" viewBox="0 0 152 44" fill="none" xmlns="http://www.w3.org/2000/svg">
<circle cx="4.5" cy="22" r="3" fill="#705A58" stroke="#705A58" stroke-width="2"/>
<path d="M8.5 22H59.5" stroke="#705A58" stroke-width="2"/>
<circle cx="63.5" cy="22" r="3" fill="#8A6966" stroke="#8A6966" stroke-width="2"/>
<path d="M67.5 22H119.5" stroke="#8A6966" stroke-width="2"/>
<g filter="url(#filter0_di_540_13722)">
<rect x="119.5" y="12" width="20" height="20" rx="10" fill="#EBA298" fill-opacity="0.6" shape-rendering="crispEdges"/>
<rect x="117.5" y="10" width="24" height="24" rx="12" stroke="#C2A3A3" stroke-opacity="0.3" stroke-width="4" shape-rendering="crispEdges"/>
<path d="M129.475 26.627C128.806 26.627 128.207 26.5127 127.678 26.2842C127.149 26.0557 126.735 25.734 126.434 25.3193C126.138 24.9046 125.983 24.4349 125.971 23.9102H127.894C127.907 24.126 127.983 24.3206 128.123 24.4941C128.262 24.6676 128.451 24.8031 128.688 24.9004C128.924 24.9977 129.187 25.0464 129.475 25.0464C129.775 25.0464 130.046 24.9935 130.287 24.8877C130.533 24.7777 130.721 24.6296 130.852 24.4434C130.983 24.2529 131.047 24.0371 131.042 23.7959C131.047 23.5462 130.979 23.3241 130.839 23.1294C130.7 22.9347 130.497 22.7845 130.23 22.6787C129.968 22.5687 129.659 22.5137 129.303 22.5137H128.446V21.1045H129.303C129.604 21.1045 129.872 21.0537 130.109 20.9521C130.346 20.8464 130.528 20.7004 130.655 20.5142C130.782 20.328 130.844 20.1164 130.839 19.8794C130.844 19.6466 130.791 19.4414 130.681 19.2637C130.571 19.0817 130.412 18.9421 130.205 18.8447C129.997 18.7474 129.76 18.6987 129.494 18.6987C129.223 18.6987 128.975 18.7474 128.751 18.8447C128.527 18.9378 128.345 19.0732 128.205 19.251C128.07 19.4245 127.996 19.6276 127.983 19.8604H126.155C126.172 19.3398 126.326 18.8765 126.618 18.4702C126.91 18.064 127.306 17.7487 127.805 17.5244C128.309 17.2959 128.872 17.1816 129.494 17.1816C130.124 17.1816 130.681 17.2938 131.163 17.5181C131.646 17.7424 132.02 18.0513 132.287 18.4448C132.553 18.8384 132.682 19.2785 132.674 19.7651C132.682 20.0994 132.612 20.4041 132.464 20.6792C132.32 20.9543 132.115 21.1807 131.849 21.3584C131.586 21.5319 131.282 21.6504 130.935 21.7139V21.7837C131.383 21.8387 131.764 21.9635 132.077 22.1582C132.395 22.3486 132.634 22.5941 132.794 22.8945C132.955 23.195 133.031 23.5378 133.023 23.9229C133.031 24.4349 132.883 24.8983 132.579 25.313C132.274 25.7235 131.851 26.0451 131.309 26.2778C130.767 26.5106 130.156 26.627 129.475 26.627Z" fill="#FFC4BE"/>
<path d="M129.475 26.627C128.806 26.627 128.207 26.5127 127.678 26.2842C127.149 26.0557 126.735 25.734 126.434 25.3193C126.138 24.9046 125.983 24.4349 125.971 23.9102H127.894C127.907 24.126 127.983 24.3206 128.123 24.4941C128.262 24.6676 128.451 24.8031 128.688 24.9004C128.924 24.9977 129.187 25.0464 129.475 25.0464C129.775 25.0464 130.046 24.9935 130.287 24.8877C130.533 24.7777 130.721 24.6296 130.852 24.4434C130.983 24.2529 131.047 24.0371 131.042 23.7959C131.047 23.5462 130.979 23.3241 130.839 23.1294C130.7 22.9347 130.497 22.7845 130.23 22.6787C129.968 22.5687 129.659 22.5137 129.303 22.5137H128.446V21.1045H129.303C129.604 21.1045 129.872 21.0537 130.109 20.9521C130.346 20.8464 130.528 20.7004 130.655 20.5142C130.782 20.328 130.844 20.1164 130.839 19.8794C130.844 19.6466 130.791 19.4414 130.681 19.2637C130.571 19.0817 130.412 18.9421 130.205 18.8447C129.997 18.7474 129.76 18.6987 129.494 18.6987C129.223 18.6987 128.975 18.7474 128.751 18.8447C128.527 18.9378 128.345 19.0732 128.205 19.251C128.07 19.4245 127.996 19.6276 127.983 19.8604H126.155C126.172 19.3398 126.326 18.8765 126.618 18.4702C126.91 18.064 127.306 17.7487 127.805 17.5244C128.309 17.2959 128.872 17.1816 129.494 17.1816C130.124 17.1816 130.681 17.2938 131.163 17.5181C131.646 17.7424 132.02 18.0513 132.287 18.4448C132.553 18.8384 132.682 19.2785 132.674 19.7651C132.682 20.0994 132.612 20.4041 132.464 20.6792C132.32 20.9543 132.115 21.1807 131.849 21.3584C131.586 21.5319 131.282 21.6504 130.935 21.7139V21.7837C131.383 21.8387 131.764 21.9635 132.077 22.1582C132.395 22.3486 132.634 22.5941 132.794 22.8945C132.955 23.195 133.031 23.5378 133.023 23.9229C133.031 24.4349 132.883 24.8983 132.579 25.313C132.274 25.7235 131.851 26.0451 131.309 26.2778C130.767 26.5106 130.156 26.627 129.475 26.627Z" fill="#D2D2D2" fill-opacity="0.5"/>
</g>
<defs>
<filter id="filter0_di_540_13722" x="107.5" y="0" width="44" height="44" filterUnits="userSpaceOnUse" color-interpolation-filters="sRGB">
<feFlood flood-opacity="0" result="BackgroundImageFix"/>
<feColorMatrix in="SourceAlpha" type="matrix" values="0 0 0 0 0 0 0 0 0 0 0 0 0 0 0 0 0 0 127 0" result="hardAlpha"/>
<feOffset/>
<feGaussianBlur stdDeviation="4"/>
<feComposite in2="hardAlpha" operator="out"/>
<feColorMatrix type="matrix" values="0 0 0 0 1 0 0 0 0 0.767787 0 0 0 0 0.747054 0 0 0 0.21 0"/>
<feBlend mode="normal" in2="BackgroundImageFix" result="effect1_dropShadow_540_13722"/>
<feBlend mode="normal" in="SourceGraphic" in2="effect1_dropShadow_540_13722" result="shape"/>
<feColorMatrix in="SourceAlpha" type="matrix" values="0 0 0 0 0 0 0 0 0 0 0 0 0 0 0 0 0 0 127 0" result="hardAlpha"/>
<feOffset/>
<feGaussianBlur stdDeviation="2"/>
<feComposite in2="hardAlpha" operator="arithmetic" k2="-1" k3="1"/>
<feColorMatrix type="matrix" values="0 0 0 0 1 0 0 0 0 1 0 0 0 0 1 0 0 0 0.25 0"/>
<feBlend mode="normal" in2="shape" result="effect2_innerShadow_540_13722"/>
</filter>
</defs>
</svg>
