<svg width="24" height="24" viewBox="0 0 24 24" fill="none" xmlns="http://www.w3.org/2000/svg">
<path d="M11.9912 23.2471C10.7139 23.2471 9.49512 23.0508 8.33496 22.6582C7.1748 22.2715 6.11133 21.7207 5.14453 21.0059C4.18359 20.2969 3.3457 19.459 2.63086 18.4922C1.92188 17.5312 1.37109 16.4707 0.978516 15.3105C0.591797 14.1504 0.398438 12.9316 0.398438 11.6543C0.398438 10.3711 0.591797 9.15234 0.978516 7.99805C1.37109 6.83789 1.92188 5.77441 2.63086 4.80762C3.3457 3.84082 4.18359 3.00293 5.14453 2.29395C6.11133 1.58496 7.1748 1.03418 8.33496 0.641602C9.49512 0.249023 10.7139 0.0527344 11.9912 0.0527344C13.2744 0.0527344 14.4932 0.249023 15.6475 0.641602C16.8076 1.03418 17.8711 1.58496 18.8379 2.29395C19.8047 3.00293 20.6426 3.84082 21.3516 4.80762C22.0605 5.77441 22.6113 6.83789 23.0039 7.99805C23.3965 9.15234 23.5928 10.3711 23.5928 11.6543C23.5928 12.9316 23.3965 14.1504 23.0039 15.3105C22.6113 16.4707 22.0605 17.5312 21.3516 18.4922C20.6426 19.459 19.8047 20.2969 18.8379 21.0059C17.8711 21.7207 16.8076 22.2715 15.6475 22.6582C14.4932 23.0508 13.2744 23.2471 11.9912 23.2471ZM11.9912 21.2344C13.0518 21.2344 14.0596 21.0732 15.0146 20.751C15.9756 20.4287 16.8545 19.9746 17.6514 19.3887C18.4482 18.8027 19.1396 18.1113 19.7256 17.3145C20.3174 16.5117 20.7715 15.6328 21.0879 14.6777C21.4102 13.7227 21.5713 12.7148 21.5713 11.6543C21.5713 10.5938 21.4102 9.58594 21.0879 8.63086C20.7715 7.66992 20.3174 6.79102 19.7256 5.99414C19.1396 5.19727 18.4482 4.50586 17.6514 3.91992C16.8545 3.32813 15.9756 2.87402 15.0146 2.55762C14.0596 2.23535 13.0518 2.07422 11.9912 2.07422C10.9307 2.07422 9.92285 2.23535 8.96777 2.55762C8.0127 2.87402 7.13379 3.32813 6.33105 3.91992C5.53418 4.50586 4.84277 5.19727 4.25684 5.99414C3.6709 6.79102 3.2168 7.66992 2.89453 8.63086C2.57227 9.58594 2.41113 10.5938 2.41113 11.6543C2.41113 12.7148 2.57227 13.7227 2.89453 14.6777C3.2168 15.6328 3.6709 16.5117 4.25684 17.3145C4.84277 18.1113 5.53418 18.8027 6.33105 19.3887C7.13379 19.9746 8.0127 20.4287 8.96777 20.751C9.92285 21.0732 10.9307 21.2344 11.9912 21.2344ZM19.5674 19.0986C18.8467 19.7607 18.0469 20.3232 17.168 20.7861C16.2891 21.249 15.3984 21.6006 14.4961 21.8408C13.5996 22.0869 12.7646 22.21 11.9912 22.21C11.2236 22.21 10.3857 22.0869 9.47754 21.8408C8.5752 21.5947 7.67871 21.2402 6.78809 20.7773C5.90332 20.3203 5.1123 19.7607 4.41504 19.0986L4.4502 18.9229C4.63184 18.5127 4.93945 18.1084 5.37305 17.71C5.80664 17.3057 6.35156 16.9395 7.00781 16.6113C7.66406 16.2832 8.41113 16.0195 9.24902 15.8203C10.0869 15.6211 11.001 15.5215 11.9912 15.5215C12.9814 15.5215 13.8955 15.6211 14.7334 15.8203C15.5713 16.0195 16.3154 16.2861 16.9658 16.6201C17.6221 16.9482 18.167 17.3145 18.6006 17.7188C19.04 18.123 19.3506 18.5303 19.5322 18.9404L19.5674 19.0986ZM11.9912 13.6494C11.2588 13.6436 10.5967 13.4531 10.0049 13.0781C9.41895 12.6973 8.95312 12.1846 8.60742 11.54C8.26758 10.8955 8.09766 10.1689 8.09766 9.36035C8.0918 8.59863 8.26172 7.90137 8.60742 7.26855C8.95312 6.62988 9.42188 6.12012 10.0137 5.73926C10.6055 5.3584 11.2646 5.16797 11.9912 5.16797C12.7119 5.16797 13.3652 5.3584 13.9512 5.73926C14.543 6.12012 15.0117 6.62988 15.3574 7.26855C15.709 7.90137 15.8848 8.59863 15.8848 9.36035C15.8848 10.1689 15.7119 10.8984 15.3662 11.5488C15.0205 12.1934 14.5518 12.7061 13.96 13.0869C13.374 13.4678 12.7178 13.6553 11.9912 13.6494Z" fill="#999999"/>
</svg>
