<svg width="24" height="24" viewBox="0 0 24 24" fill="none" xmlns="http://www.w3.org/2000/svg">
<path d="M11.9912 23.2471C10.7139 23.2471 9.49805 23.0508 8.34375 22.6582C7.18945 22.2656 6.12891 21.7119 5.16211 20.9971C4.19531 20.2881 3.35449 19.4502 2.63965 18.4834C1.93066 17.5166 1.37988 16.4561 0.987305 15.3018C0.594727 14.1416 0.398438 12.9258 0.398438 11.6543C0.398438 10.2363 0.647461 8.8916 1.14551 7.62012C1.64355 6.34277 2.32324 5.20312 3.18457 4.20117C3.33105 4.01367 3.49512 3.88477 3.67676 3.81445C3.8584 3.73828 4.04004 3.71777 4.22168 3.75293C4.40332 3.78809 4.56152 3.87598 4.69629 4.0166C4.90723 4.22754 5.00391 4.46191 4.98633 4.71973C4.97461 4.97168 4.875 5.2207 4.6875 5.4668C3.97852 6.29883 3.42188 7.24219 3.01758 8.29688C2.61914 9.35156 2.41699 10.4707 2.41113 11.6543C2.41113 12.7148 2.56934 13.7256 2.88574 14.6865C3.20801 15.6416 3.66211 16.5176 4.24805 17.3145C4.83398 18.1113 5.52539 18.8027 6.32227 19.3887C7.11914 19.9746 7.99805 20.4287 8.95898 20.751C9.91992 21.0732 10.9307 21.2344 11.9912 21.2344C13.0576 21.2344 14.0684 21.0732 15.0234 20.751C15.9844 20.4287 16.8633 19.9746 17.6602 19.3887C18.457 18.8027 19.1455 18.1113 19.7256 17.3145C20.3115 16.5176 20.7627 15.6416 21.0791 14.6865C21.4014 13.7256 21.5625 12.7148 21.5625 11.6543C21.5625 10.582 21.4014 9.56543 21.0791 8.60449C20.7568 7.6377 20.2998 6.75293 19.708 5.9502C19.1221 5.14746 18.4248 4.45605 17.6162 3.87598C16.8135 3.29004 15.9258 2.83887 14.9531 2.52246C13.9863 2.2002 12.9639 2.04199 11.8857 2.04785L12.7207 0.94043V5.2998C12.7207 5.55762 12.6416 5.77148 12.4834 5.94141C12.3252 6.11133 12.1201 6.19629 11.8682 6.19629C11.6104 6.19629 11.4023 6.11133 11.2441 5.94141C11.0859 5.77148 11.0068 5.55762 11.0068 5.2998V1.0459C11.0068 0.735352 11.0918 0.492188 11.2617 0.316406C11.4316 0.140625 11.6777 0.0527344 12 0.0527344C13.2715 0.0527344 14.4844 0.249023 15.6387 0.641602C16.7988 1.03418 17.8623 1.58789 18.8291 2.30273C19.7959 3.01758 20.6338 3.8584 21.3428 4.8252C22.0518 5.79199 22.6025 6.85547 22.9951 8.01562C23.3936 9.16992 23.5928 10.3828 23.5928 11.6543C23.5928 12.9258 23.3936 14.1416 22.9951 15.3018C22.6025 16.4561 22.0488 17.5166 21.334 18.4834C20.625 19.4502 19.7871 20.2881 18.8203 20.9971C17.8535 21.7119 16.79 22.2656 15.6299 22.6582C14.4756 23.0508 13.2627 23.2471 11.9912 23.2471ZM11.9912 13.4736C11.6572 13.4736 11.3525 13.3916 11.0771 13.2275C10.8076 13.0635 10.582 12.8408 10.4004 12.5596L6.73535 7.09277C6.60645 6.8877 6.56836 6.7002 6.62109 6.53027C6.67969 6.35449 6.79395 6.2373 6.96387 6.17871C7.13965 6.12012 7.32715 6.1582 7.52637 6.29297L13.0107 10.1426C13.2627 10.3184 13.459 10.5381 13.5996 10.8018C13.7461 11.0596 13.8193 11.3438 13.8193 11.6543C13.8193 11.9883 13.7373 12.293 13.5732 12.5684C13.4092 12.8438 13.1865 13.0635 12.9053 13.2275C12.6299 13.3916 12.3252 13.4736 11.9912 13.4736Z" fill="#999999"/>
</svg>
