<svg width="140" height="44" viewBox="0 0 140 44" fill="none" xmlns="http://www.w3.org/2000/svg">
<circle cx="4.5" cy="22" r="4" fill="#705A58"/>
<path d="M8.5 22H59.5" stroke="#705A58" stroke-width="2"/>
<g filter="url(#filter0_di_540_13709)">
<rect x="59.5" y="12" width="20" height="20" rx="10" fill="#EBA298" fill-opacity="0.6" shape-rendering="crispEdges"/>
<rect x="57.5" y="10" width="24" height="24" rx="12" stroke="#C2A3A3" stroke-opacity="0.3" stroke-width="4" shape-rendering="crispEdges"/>
<path d="M66.2437 25.1226L69.5508 22.082C69.8766 21.7689 70.1305 21.5107 70.3125 21.3076C70.4945 21.1003 70.632 20.8929 70.7251 20.6855C70.8224 20.474 70.8711 20.2497 70.8711 20.0127C70.8711 19.7503 70.8076 19.5197 70.6807 19.3208C70.5537 19.1177 70.3802 18.9632 70.1602 18.8574C69.9401 18.7516 69.6904 18.6987 69.4111 18.6987C69.1276 18.6987 68.8758 18.7559 68.6558 18.8701C68.4399 18.9844 68.2728 19.1515 68.1543 19.3716C68.04 19.5874 67.9829 19.8392 67.9829 20.127H66.1675C66.1675 19.5387 66.3029 19.0225 66.5737 18.5781C66.8488 18.1296 67.2318 17.7847 67.7227 17.5435C68.2178 17.3022 68.7869 17.1816 69.4302 17.1816C70.0776 17.1816 70.6489 17.2959 71.144 17.5244C71.6392 17.7529 72.0221 18.0724 72.293 18.4829C72.568 18.8934 72.7056 19.3631 72.7056 19.8921C72.7056 20.2518 72.6357 20.5988 72.4961 20.9331C72.3607 21.2674 72.1195 21.6377 71.7725 22.0439C71.4297 22.4502 70.9409 22.9411 70.3062 23.5166L68.9033 24.8687V24.9321H72.8389V26.5H66.25L66.2437 25.1226Z" fill="#FFC4BE"/>
<path d="M66.2437 25.1226L69.5508 22.082C69.8766 21.7689 70.1305 21.5107 70.3125 21.3076C70.4945 21.1003 70.632 20.8929 70.7251 20.6855C70.8224 20.474 70.8711 20.2497 70.8711 20.0127C70.8711 19.7503 70.8076 19.5197 70.6807 19.3208C70.5537 19.1177 70.3802 18.9632 70.1602 18.8574C69.9401 18.7516 69.6904 18.6987 69.4111 18.6987C69.1276 18.6987 68.8758 18.7559 68.6558 18.8701C68.4399 18.9844 68.2728 19.1515 68.1543 19.3716C68.04 19.5874 67.9829 19.8392 67.9829 20.127H66.1675C66.1675 19.5387 66.3029 19.0225 66.5737 18.5781C66.8488 18.1296 67.2318 17.7847 67.7227 17.5435C68.2178 17.3022 68.7869 17.1816 69.4302 17.1816C70.0776 17.1816 70.6489 17.2959 71.144 17.5244C71.6392 17.7529 72.0221 18.0724 72.293 18.4829C72.568 18.8934 72.7056 19.3631 72.7056 19.8921C72.7056 20.2518 72.6357 20.5988 72.4961 20.9331C72.3607 21.2674 72.1195 21.6377 71.7725 22.0439C71.4297 22.4502 70.9409 22.9411 70.3062 23.5166L68.9033 24.8687V24.9321H72.8389V26.5H66.25L66.2437 25.1226Z" fill="#D2D2D2" fill-opacity="0.5"/>
</g>
<path d="M79.5 22H131.5" stroke="#49444B" stroke-width="2"/>
<circle cx="135.5" cy="22" r="4" fill="#49444B"/>
<defs>
<filter id="filter0_di_540_13709" x="47.5" y="0" width="44" height="44" filterUnits="userSpaceOnUse" color-interpolation-filters="sRGB">
<feFlood flood-opacity="0" result="BackgroundImageFix"/>
<feColorMatrix in="SourceAlpha" type="matrix" values="0 0 0 0 0 0 0 0 0 0 0 0 0 0 0 0 0 0 127 0" result="hardAlpha"/>
<feOffset/>
<feGaussianBlur stdDeviation="4"/>
<feComposite in2="hardAlpha" operator="out"/>
<feColorMatrix type="matrix" values="0 0 0 0 1 0 0 0 0 0.767787 0 0 0 0 0.747054 0 0 0 0.21 0"/>
<feBlend mode="normal" in2="BackgroundImageFix" result="effect1_dropShadow_540_13709"/>
<feBlend mode="normal" in="SourceGraphic" in2="effect1_dropShadow_540_13709" result="shape"/>
<feColorMatrix in="SourceAlpha" type="matrix" values="0 0 0 0 0 0 0 0 0 0 0 0 0 0 0 0 0 0 127 0" result="hardAlpha"/>
<feOffset/>
<feGaussianBlur stdDeviation="2"/>
<feComposite in2="hardAlpha" operator="arithmetic" k2="-1" k3="1"/>
<feColorMatrix type="matrix" values="0 0 0 0 1 0 0 0 0 1 0 0 0 0 1 0 0 0 0.25 0"/>
<feBlend mode="normal" in2="shape" result="effect2_innerShadow_540_13709"/>
</filter>
</defs>
</svg>
